<svg width="95" height="95" viewBox="0 0 95 95" fill="none" xmlns="http://www.w3.org/2000/svg">
<circle cx="47.5" cy="47.5" r="47.5" fill="#B8B0F8"/>
<path d="M62.0357 25H32.9643C30.7757 25 29 26.9316 29 29.3125V66.6875C29 69.0684 30.7757 71 32.9643 71H62.0357C64.2243 71 66 69.0684 66 66.6875V29.3125C66 26.9316 64.2243 25 62.0357 25ZM47.5 68.125C46.0382 68.125 44.8571 66.8402 44.8571 65.25C44.8571 63.6598 46.0382 62.375 47.5 62.375C48.9618 62.375 50.1429 63.6598 50.1429 65.25C50.1429 66.8402 48.9618 68.125 47.5 68.125ZM62.0357 58.4219C62.0357 59.0148 61.5897 59.5 61.0446 59.5H33.9554C33.4103 59.5 32.9643 59.0148 32.9643 58.4219V30.3906C32.9643 29.7977 33.4103 29.3125 33.9554 29.3125H61.0446C61.5897 29.3125 62.0357 29.7977 62.0357 30.3906V58.4219Z" stroke="white" stroke-width="2"/>
</svg>
