<svg width="95" height="95" viewBox="0 0 95 95" fill="none" xmlns="http://www.w3.org/2000/svg">
<circle cx="47.5" cy="47.5" r="47.5" fill="#B8B0F8"/>
<path d="M71.375 62H27.5V28.75C27.5 27.7831 26.7728 27 25.875 27H22.625C21.7272 27 21 27.7831 21 28.75V65.5C21 67.4327 22.4554 69 24.25 69H71.375C72.2728 69 73 68.2169 73 67.25V63.75C73 62.7831 72.2728 62 71.375 62ZM68.125 30.5H56.1345C53.9631 30.5 52.8754 33.3273 54.411 34.9811L57.7016 38.5248L50.25 46.5508L42.7984 38.5259C41.5288 37.1588 39.4712 37.1588 38.2027 38.5259L31.2263 46.0389C30.5916 46.7225 30.5916 47.8305 31.2263 48.5141L33.5237 50.9881C34.1584 51.6717 35.1873 51.6717 35.822 50.9881L40.5 45.9492L47.9516 53.9741C49.2212 55.3413 51.2788 55.3413 52.5473 53.9741L62.2973 43.4741L65.588 47.0178C67.1236 48.6716 69.749 47.5002 69.749 45.1617V32.25C69.75 31.2831 69.0228 30.5 68.125 30.5Z" stroke="white" stroke-width="2"/>
</svg>
