<svg width="95" height="95" viewBox="0 0 95 95" fill="none" xmlns="http://www.w3.org/2000/svg">
<circle cx="47.5" cy="47.5" r="47.5" fill="#B8B0F8"/>
<path d="M63.588 43.4599L62.9202 44.6929C62.6758 45.1499 62.1546 45.3396 61.6903 45.1585C60.7293 44.7791 59.8496 44.2359 59.0759 43.5547C58.7012 43.227 58.6035 42.6493 58.8478 42.2009L59.5157 40.9679C58.9537 40.278 58.5139 39.4761 58.2207 38.6052H56.8768C56.3881 38.6052 55.9646 38.2344 55.8832 37.7171C55.7203 36.6823 55.7121 35.5959 55.8832 34.518C55.9646 34.0006 56.3881 33.6212 56.8768 33.6212H58.2207C58.5139 32.7503 58.9537 31.9484 59.5157 31.2586L58.8478 30.0255C58.6035 29.5771 58.6931 28.9994 59.0759 28.6718C59.8496 27.9906 60.7374 27.4473 61.6903 27.0679C62.1546 26.8868 62.6758 27.0765 62.9202 27.5335L63.588 28.7666C64.4432 28.6028 65.3147 28.6028 66.1699 28.7666L66.8378 27.5335C67.0821 27.0765 67.6034 26.8868 68.0676 27.0679C69.0287 27.4473 69.9083 27.9906 70.682 28.6718C71.0567 28.9994 71.1544 29.5771 70.9101 30.0255L70.2422 31.2586C70.8042 31.9484 71.244 32.7503 71.5372 33.6212H72.8811C73.3698 33.6212 73.7933 33.992 73.8748 34.5094C74.0376 35.5441 74.0458 36.6306 73.8748 37.7084C73.7933 38.2258 73.3698 38.6052 72.8811 38.6052H71.5372C71.244 39.4761 70.8042 40.278 70.2422 40.9679L70.9101 42.2009C71.1544 42.6493 71.0648 43.227 70.682 43.5547C69.9083 44.2359 69.0205 44.7791 68.0676 45.1585C67.6034 45.3396 67.0821 45.1499 66.8378 44.6929L66.1699 43.4599C65.3228 43.6237 64.4432 43.6237 63.588 43.4599ZM62.7328 38.3896C65.8685 40.942 69.4441 37.1566 67.0332 33.8368C63.8975 31.2758 60.322 35.0699 62.7328 38.3896ZM51.4636 51.6601L54.2084 53.1088C55.031 53.6089 55.3894 54.6695 55.0636 55.618C54.3387 57.7047 52.9134 59.619 51.5939 61.2918C50.9912 62.0592 49.9487 62.2489 49.1261 61.7488L46.756 60.3002C45.4529 61.4815 43.938 62.4214 42.2846 63.0336V65.9309C42.2846 66.9311 41.6086 67.7934 40.6801 67.9658C38.6765 68.328 36.5752 68.3452 34.4983 67.9658C33.5616 67.7934 32.8693 66.9397 32.8693 65.9309V63.0336C31.216 62.4128 29.7011 61.4815 28.3979 60.3002L26.0278 61.7402C25.2134 62.2403 24.1627 62.0506 23.56 61.2832C22.2405 59.6104 20.8478 57.6961 20.1229 55.618C19.7971 54.6781 20.1555 53.6175 20.9781 53.1088L23.6903 51.6601C23.3727 49.858 23.3727 48.0041 23.6903 46.1933L20.9781 44.736C20.1555 44.2359 19.789 43.1753 20.1229 42.2354C20.8478 40.1487 22.2405 38.2344 23.56 36.5616C24.1627 35.7942 25.2052 35.6045 26.0278 36.1046L28.3979 37.5532C29.7011 36.3719 31.216 35.432 32.8693 34.8198V31.9139C32.8693 30.9223 33.5372 30.06 34.4657 29.8876C36.4693 29.5254 38.5788 29.5082 40.6556 29.8789C41.5923 30.0514 42.2846 30.9051 42.2846 31.9139V34.8112C43.938 35.432 45.4529 36.3633 46.756 37.5446L49.1261 36.096C49.9406 35.5959 50.9912 35.7856 51.5939 36.553C52.9134 38.2258 54.298 40.1401 55.0229 42.2268C55.3486 43.1667 55.031 44.2273 54.2084 44.736L51.4636 46.1847C51.7813 47.9954 51.7813 49.8493 51.4636 51.6601ZM41.8855 53.4795C46.7071 46.84 39.548 39.2605 33.2766 44.3652C28.4549 51.0048 35.6141 58.5842 41.8855 53.4795ZM63.588 69.2334L62.9202 70.4665C62.6758 70.9235 62.1546 71.1132 61.6903 70.9321C60.7293 70.5527 59.8496 70.0094 59.0759 69.3282C58.7012 69.0006 58.6035 68.4228 58.8478 67.9745L59.5157 66.7414C58.9537 66.0516 58.5139 65.2497 58.2207 64.3788H56.8768C56.3881 64.3788 55.9646 64.008 55.8832 63.4906C55.7203 62.4559 55.7121 61.3694 55.8832 60.2916C55.9646 59.7742 56.3881 59.3948 56.8768 59.3948H58.2207C58.5139 58.5239 58.9537 57.722 59.5157 57.0321L58.8478 55.7991C58.6035 55.3507 58.6931 54.773 59.0759 54.4453C59.8496 53.7641 60.7374 53.2209 61.6903 52.8415C62.1546 52.6604 62.6758 52.8501 62.9202 53.3071L63.588 54.5401C64.4432 54.3763 65.3147 54.3763 66.1699 54.5401L66.8378 53.3071C67.0821 52.8501 67.6034 52.6604 68.0676 52.8415C69.0287 53.2209 69.9083 53.7641 70.682 54.4453C71.0567 54.773 71.1544 55.3507 70.9101 55.7991L70.2422 57.0321C70.8042 57.722 71.244 58.5239 71.5372 59.3948H72.8811C73.3698 59.3948 73.7933 59.7656 73.8748 60.2829C74.0376 61.3177 74.0458 62.4041 73.8748 63.482C73.7933 63.9994 73.3698 64.3788 72.8811 64.3788H71.5372C71.244 65.2497 70.8042 66.0516 70.2422 66.7414L70.9101 67.9745C71.1544 68.4228 71.0648 69.0006 70.682 69.3282C69.9083 70.0094 69.0205 70.5527 68.0676 70.9321C67.6034 71.1132 67.0821 70.9235 66.8378 70.4665L66.1699 69.2334C65.3228 69.3972 64.4432 69.3972 63.588 69.2334ZM62.7328 64.1546C65.8685 66.7069 69.4441 62.9215 67.0332 59.6017C63.8975 57.0494 60.322 60.8348 62.7328 64.1546Z" stroke="white" stroke-width="2"/>
</svg>
