<svg width="1340" height="925" viewBox="0 0 1340 925" fill="none" xmlns="http://www.w3.org/2000/svg">
<path d="M217.675 162.253C300.622 162.253 381.98 100.398 445.779 62.9166C650.842 -57.5553 839.108 20.4734 950.373 86.1654C1032.71 134.776 1139.31 206.637 1162.35 394.742C1185.39 582.847 1341.14 583.692 1328.24 713.886C1302.9 910.446 1053.05 948.25 918.116 897.765C743.006 832.245 625.497 814.527 360.528 872.401C145.609 919.343 125.759 723.276 134.728 642.025C153.161 475.056 -15.0368 466.602 1.09175 301.746C14.2998 166.742 129.938 162.253 217.675 162.253Z" fill="#DEDBFF" fill-opacity="0.5"/>
<path d="M259.615 190.657C340.253 190.657 419.345 130.554 481.368 94.1346C680.723 -22.9252 863.747 52.8935 971.914 116.725C1051.96 163.959 1155.59 233.785 1177.99 416.562C1200.39 599.34 1351.81 600.161 1339.26 726.668C1314.62 917.66 1071.73 954.394 940.555 905.338C770.32 841.674 656.083 824.458 398.491 880.693C189.555 926.305 170.258 735.791 178.977 656.842C196.897 494.601 33.3819 486.387 49.0614 326.2C61.9017 195.02 174.321 190.657 259.615 190.657Z" fill="#DEDBFF"/>
</svg>
